Patient5_TMGait_0pt45_1_left_07_GRF.mot
version=1
nRows=52
nColumns=19
inDegrees=no
endheader
time	F1x	F1y	F1z	M1x	M1y	M1z	F2x	F2y	F2z	M2x	M2y	M2z	EC1x	EC1y	EC1z	EC2x	EC2y	EC2z
10.19	7.8605	65.5372	-10.8242	-22.1747	12.8615	56.1927	-37.6084	774.474	-65.5208	307.0586	80.8746	828.0966	-0.0592	0.0182	-0.0073	-0.0462	0.0165	0.9585
10.2059	5.0982	52.7491	-6.8411	-18.0602	8.1565	44.753	-37.6286	809.5271	-58.1856	323.0592	73.8832	849.0341	-0.0592	0.0182	-0.0073	-0.0462	0.0165	0.9585
10.2217	2.5004	38.9193	-3.6146	-13.5019	4.2429	32.7764	-35.9258	845.5653	-52.8578	339.2681	67.9082	871.6702	-0.0592	0.0182	-0.0073	-0.0462	0.0165	0.9585
10.2376	0.59064	25.8857	-1.3722	-9.1154	1.5036	21.7889	-32.1543	876.2399	-49.6198	352.9713	62.8993	890.3894	-0.0592	0.0182	-0.0073	-0.0462	0.0165	0.9585
10.2534	-0.33127	15.1062	-0.040924	-5.4251	-0.038561	12.8872	-26.1996	896.459	-48.1697	362.0277	58.562	900.2064	-0.0592	0.0182	-0.0073	-0.0462	0.0165	0.9585
10.2693	-0.47614	7.4103	0.56746	-2.7529	-0.64106	6.6244	-18.2574	903.7516	-48.2668	365.3851	54.792	898.5536	-0.0592	0.0182	-0.0073	-0.0462	0.0165	0.9585
10.2851	-0.2209	2.744	0.72313	-1.1043	-0.68971	2.8829	-9.0321	898.8031	-49.5258	363.3381	51.5596	885.9794	-0.0592	0.0182	-0.0073	-0.0462	0.0165	0.9585
10.301	0.17228	0.46548	0.63692	-0.27072	-0.47031	1.1228	0.1981	884.9663	-51.4568	357.3415	48.9749	865.7105	-0.0592	0.0182	-0.0073	-0.0462	0.0165	0.9585
10.3169	0.55413	-0.2208	0.43968	0.011396	-0.15623	0.67237	7.9251	866.7101	-53.4314	349.3537	47.1022	842.0782	-0.0592	0.0182	-0.0073	-0.0462	0.0165	0.9585
10.3327	0.85654	-0.029308	0.22815	-0.020153	0.14084	0.91483	13.1849	847.9056	-54.8931	341.0939	45.8306	818.7547	-0.0592	0.0182	-0.0073	-0.0462	0.0165	0.9585
10.3486	1.0694	0.50705	0.055904	-0.18157	0.37091	1.3875	15.9805	831.2092	-55.6329	333.7405	44.9678	798.1223	-0.0592	0.0182	-0.0073	-0.0462	0.0165	0.9585
10.3644	1.1959	1.0131	-0.044077	-0.33889	0.50653	1.7783	17.1073	818.263	-55.7337	327.994	44.2603	781.4913	-0.0592	0.0182	-0.0073	-0.0462	0.0165	0.9585
10.3803	1.2572	1.2084	-0.044817	-0.38884	0.52522	1.8452	17.606	809.8902	-55.476	324.1725	43.5229	769.3843	-0.0592	0.0182	-0.0073	-0.0462	0.0165	0.9585
10.3961	1.2891	0.85673	0.062405	-0.24615	0.41595	1.3531	18.3599	806.1703	-55.1153	322.2776	42.608	761.662	-0.0592	0.0182	-0.0073	-0.0462	0.0165	0.9585
10.412	1.2934	-0.22203	0.2857	0.15966	0.15779	0.10764	20.0321	806.5906	-54.7626	322.0838	41.3354	757.6404	-0.0592	0.0182	-0.0073	-0.0462	0.0165	0.9585
10.4279	1.2496	-2.1284	0.61292	0.87076	-0.24975	-2.0332	22.9969	810.3741	-54.498	323.261	39.6254	756.4461	-0.0592	0.0182	-0.0073	-0.0462	0.0165	0.9585
10.4437	1.1143	-4.7858	0.98757	1.8637	-0.75929	-5.0409	27.3454	816.771	-54.3414	325.4892	37.4777	757.305	-0.0592	0.0182	-0.0073	-0.0462	0.0165	0.9585
10.4596	0.80668	-7.7753	1.2917	2.9803	-1.2563	-8.4635	32.8419	825.1974	-54.2685	328.5106	34.9941	759.6913	-0.0592	0.0182	-0.0073	-0.0462	0.0165	0.9585
10.4754	0.24125	-10.0847	1.3031	3.8281	-1.5048	-11.1711	38.9206	835.0488	-54.2656	332.0514	32.412	763.1725	-0.0592	0.0182	-0.0073	-0.0462	0.0165	0.9585
10.4913	-0.63266	-9.8548	0.6989	3.6838	-1.1341	-11.0712	44.8022	845.3405	-54.2765	335.6822	29.9973	767.0502	-0.0592	0.0182	-0.0073	-0.0462	0.0165	0.9585
10.5071	-1.7936	-4.1777	-0.96838	1.431	0.39709	-4.8687	49.6183	854.5632	-54.2311	338.7656	28.0242	770.2354	-0.0592	0.0182	-0.0073	-0.0462	0.0165	0.9585
10.523	-3.0741	10.8454	-4.2094	-4.4099	3.7623	11.8628	52.6053	860.6941	-54.051	340.4696	26.7034	771.2174	-0.0592	0.0182	-0.0073	-0.0462	0.0165	0.9585
10.5389	-4.035	39.4984	-9.4175	-15.4441	9.6055	44.0265	53.2856	861.2223	-53.6285	339.7935	26.0983	768.028	-0.0592	0.0182	-0.0073	-0.0462	0.0165	0.9585
10.5547	-3.8573	84.9882	-16.555	-32.8364	18.22	95.3703	51.5301	853.3776	-52.8297	335.6675	26.1193	758.3781	-0.0592	0.0182	-0.0073	-0.0462	0.0165	0.9585
10.5706	-1.5628	147.0298	-24.6214	-56.3931	28.8452	165.7494	47.5154	834.5429	-51.4664	327.1245	26.5234	740.0052	-0.0592	0.0182	-0.0073	-0.0462	0.0165	0.9585
10.5864	1.753	219.8951	-31.1809	-83.8273	38.263	248.8097	41.6594	802.9528	-49.2957	313.5695	26.9461	711.2721	-0.0592	0.0182	-0.0073	-0.0462	0.0165	0.9585
10.6023	1.8958	292.7456	-32.6909	-110.937	40.8284	332.5388	34.6173	758.2621	-46.1246	294.9894	26.986	671.6725	-0.0592	0.0182	-0.0073	-0.0462	0.0165	0.9585
10.6181	-2.5269	355.9079	-27.3501	-134.054	33.8681	406.1513	27.2016	701.7137	-41.8353	271.9901	26.2515	622.0097	-0.0592	0.0182	-0.0073	-0.0462	0.0165	0.9585
10.634	-10.1041	406.8269	-16.8039	-152.3221	19.7855	466.4956	20.2116	636.0234	-36.4816	245.7157	24.492	564.3864	-0.0592	0.0182	-0.0073	-0.0462	0.0165	0.9585
10.6499	-18.7688	448.7239	-4.3251	-167.1641	3.0481	516.6951	14.2483	564.6962	-30.3346	217.5641	21.6999	501.6798	-0.0592	0.0182	-0.0073	-0.0462	0.0165	0.9585
10.6657	-26.6083	485.9677	7.03	-180.4491	-12.1852	561.3283	9.5075	491.3265	-23.7808	188.9128	18.1093	436.9869	-0.0592	0.0182	-0.0073	-0.0462	0.0165	0.9585
10.6816	-32.6235	520.6321	15.1977	-193.1395	-23.2076	602.573	5.8288	419.3417	-17.2727	161.0316	14.1372	373.3885	-0.0592	0.0182	-0.0073	-0.0462	0.0165	0.9585
10.6974	-36.5641	553.0506	19.7609	-205.4239	-29.4633	640.6481	2.8678	351.8715	-11.2408	135.0547	10.2504	313.7546	-0.0592	0.0182	-0.0073	-0.0462	0.0165	0.9585
10.7133	-38.592	583.6193	21.8523	-217.3574	-32.2719	675.9175	0.33837	291.3867	-6.103	111.8548	6.8899	260.3317	-0.0592	0.0182	-0.0073	-0.0462	0.0165	0.9585
10.7291	-39.2874	613.0698	22.9161	-229.0433	-33.4723	709.2085	-1.8585	239.3312	-2.2196	91.9131	4.3773	214.3838	-0.0592	0.0182	-0.0073	-0.0462	0.0165	0.9585
10.745	-39.3688	642.1838	24.204	-240.6088	-34.7085	741.4669	-3.7189	195.998	0.20333	75.2971	2.8766	176.1117	-0.0592	0.0182	-0.0073	-0.0462	0.0165	0.9585
10.7609	-39.3971	671.7925	26.2989	-252.256	-36.8061	773.6561	-5.2889	160.7894	1.175	61.7616	2.4156	144.9406	-0.0592	0.0182	-0.0073	-0.0462	0.0165	0.9585
10.7767	-39.6559	702.4973	29.0191	-264.1737	-39.6531	806.4268	-6.7248	132.595	0.96419	50.8845	2.8639	119.8803	-0.0592	0.0182	-0.0073	-0.0462	0.0165	0.9585
10.7926	-40.1842	734.1272	31.8684	-276.3057	-42.6956	839.6144	-8.1907	110.1059	0.027847	42.1833	3.9439	99.7748	-0.0592	0.0182	-0.0073	-0.0462	0.0165	0.9585
10.8084	-40.8853	765.5082	34.2299	-288.2381	-45.2353	871.9862	-9.7767	92.112	-1.2033	35.2163	5.3712	83.567	-0.0592	0.0182	-0.0073	-0.0462	0.0165	0.9585
10.8243	-41.6226	794.7512	35.8919	-299.2672	-47.0094	901.5815	-11.5389	77.6703	-2.4531	29.6339	6.9512	70.4493	-0.0592	0.0182	-0.0073	-0.0462	0.0165	0.9585
10.8401	-42.2279	820.0011	36.9829	-308.6699	-48.1055	926.5073	-13.5227	66.0919	-3.6014	25.1739	8.5874	59.8444	-0.0592	0.0182	-0.0073	-0.0462	0.0165	0.9585
10.856	-42.4511	840.1551	37.6608	-315.9863	-48.6123	945.6866	-15.7366	56.8589	-4.6283	21.6314	10.2505	51.3264	-0.0592	0.0182	-0.0073	-0.0462	0.0165	0.9585
10.8719	-42.0896	854.9278	38.1656	-321.0434	-48.6978	958.9515	-18.0262	49.4575	-5.5166	18.7996	11.8459	44.4688	-0.0592	0.0182	-0.0073	-0.0462	0.0165	0.9585
10.8877	-41.0275	864.4777	38.6834	-323.8318	-48.4986	966.5775	-19.9979	43.2512	-6.2206	16.4279	13.1619	38.7211	-0.0592	0.0182	-0.0073	-0.0462	0.0165	0.9585
10.9036	-39.1636	869.1681	39.3454	-324.4415	-48.1064	968.9714	-21.0813	37.505	-6.6343	14.2337	13.8788	33.4249	-0.0592	0.0182	-0.0073	-0.0462	0.0165	0.9585
10.9194	-36.4466	869.525	40.2534	-323.0638	-47.6117	966.6505	-20.712	31.5574	-6.6036	11.9653	13.6522	28.0073	-0.0592	0.0182	-0.0073	-0.0462	0.0165	0.9585
10.9353	-32.9205	866.127	41.4501	-319.9765	-47.1014	960.1623	-18.5378	25.0345	-6.0062	9.4841	12.257	22.1475	-0.0592	0.0182	-0.0073	-0.0462	0.0165	0.9585
10.9511	-28.7869	859.5464	42.9352	-315.5364	-46.6813	950.0955	-14.6566	18.0786	-4.8314	6.8518	9.7324	15.9583	-0.0592	0.0182	-0.0073	-0.0462	0.0165	0.9585
10.967	-24.3215	850.4615	44.4781	-310.2053	-46.2561	937.1794	-9.9507	11.512	-3.3019	4.3826	6.6068	10.1571	-0.0592	0.0182	-0.0073	-0.0462	0.0165	0.9585
10.9829	-19.7551	839.7769	45.6767	-304.5397	-45.5381	922.3868	-5.7164	6.3476	-1.8806	2.4495	3.7662	5.6542	-0.0592	0.0182	-0.0073	-0.0462	0.0165	0.9585
10.9987	-15.2515	828.6434	46.167	-299.1432	-44.2401	906.9385	-2.5609	2.8791	-0.81108	1.1586	1.6473	2.6979	-0.0592	0.0182	-0.0073	-0.0462	0.0165	0.9585
